<?xml version="1.0" standalone="no"?>
<!DOCTYPE svg PUBLIC "-//W3C//DTD SVG 20010904//EN"
 "http://www.w3.org/TR/2001/REC-SVG-20010904/DTD/svg10.dtd">
<svg version="1.0" xmlns="http://www.w3.org/2000/svg"
 width="700.000000pt" height="700.000000pt" viewBox="0 0 700.000000 700.000000"
 preserveAspectRatio="xMidYMid meet">
<metadata>
Created by potrace 1.14, written by Peter Selinger 2001-2017
</metadata>
<g transform="translate(0.000000,700.000000) scale(0.100000,-0.100000)"
fill="#000000" stroke="none">
<path d="M1765 6991 c-11 -5 -31 -21 -45 -36 l-25 -27 0 -726 0 -727 778 0
c427 0 777 2 777 5 0 3 -25 32 -56 65 -31 33 -84 92 -119 130 -34 39 -73 82
-86 96 -13 14 -62 67 -109 118 -47 52 -96 106 -110 121 -14 15 -59 65 -101
111 -43 46 -88 96 -100 110 -13 14 -62 67 -109 119 -47 51 -107 118 -135 148
-27 30 -58 64 -68 76 -10 11 -39 44 -65 72 -26 27 -92 99 -147 159 -55 60
-116 126 -135 147 -28 30 -44 39 -80 43 -25 3 -54 1 -65 -4z"/>
<path d="M5083 6943 c-51 -51 -217 -230 -266 -287 -15 -17 -158 -173 -192
-210 -22 -23 -212 -233 -245 -270 -19 -21 -51 -55 -70 -76 -55 -59 -221 -242
-315 -346 -5 -6 -51 -55 -102 -110 -108 -116 -143 -157 -143 -164 0 -3 349 -5
776 -5 l777 0 0 722 c-1 652 -2 725 -17 748 -20 31 -60 51 -108 54 -34 2 -43
-3 -95 -56z"/>
<path d="M215 5246 c-85 -27 -149 -79 -192 -158 -17 -31 -18 -107 -18 -1568
l0 -1535 22 -40 c43 -80 116 -136 203 -156 35 -9 1239 -13 1247 -5 2 2 6 354
7 783 1 428 6 790 9 805 20 77 60 177 97 241 34 58 96 125 315 342 287 284
1102 1086 1236 1217 44 42 79 79 79 82 0 3 -667 6 -1482 5 -1167 0 -1492 -3
-1523 -13z"/>
<path d="M3770 5256 c0 -4 190 -193 500 -496 835 -819 1075 -1059 1115 -1120
51 -76 77 -134 107 -235 21 -68 21 -89 23 -845 l2 -775 634 0 634 0 50 27 c60
32 105 77 137 138 l23 45 2 1505 c2 1290 0 1512 -12 1556 -18 64 -81 136 -149
172 l-51 27 -1507 3 c-830 1 -1508 1 -1508 -2z"/>
<path d="M3203 4933 c-174 -171 -930 -914 -1248 -1228 -83 -82 -164 -171 -179
-197 -35 -59 -64 -140 -73 -198 -4 -25 -7 -767 -7 -1648 l-1 -1604 28 -24 c19
-16 40 -24 66 -24 43 0 50 6 176 145 44 48 85 93 90 99 6 6 80 88 165 181 85
94 159 175 165 181 5 6 48 53 95 105 47 51 110 120 141 154 31 33 103 112 160
175 57 63 113 124 124 135 11 11 58 63 105 115 47 52 90 100 95 106 140 154
189 207 232 253 l52 56 1 590 c0 325 1 1088 3 1697 1 610 0 1108 -3 1108 -3 0
-87 -80 -187 -177z"/>
<path d="M3609 5098 c-1 -2 -2 -763 -2 -1693 l-2 -1690 45 -50 c25 -27 64 -70
87 -95 23 -25 50 -55 60 -66 10 -12 61 -68 113 -124 52 -56 102 -110 110 -120
8 -9 53 -59 100 -110 47 -51 93 -102 103 -113 9 -11 59 -66 110 -121 101 -110
272 -297 407 -446 47 -51 92 -101 100 -110 8 -9 60 -65 115 -126 175 -192 219
-234 249 -234 41 0 85 27 92 57 9 34 9 3195 0 3245 -8 53 -53 166 -82 213 -29
45 -41 57 -1446 1438 -138 135 -156 152 -159 145z"/>
</g>
</svg>
